<VTKFile type="UnstructuredGrid" version="1.0" byte_order="LittleEndian" header_type="UInt64">
  <UnstructuredGrid>
    <Piece NumberOfPoints="225" NumberOfCells="640">
      <PointData>
      </PointData>
      <CellData Scalars="domain">
        <DataArray type="Int32" Name="domain" NumberOfComponents="1" format="ascii">
          0 0 0 0 0 0
          0 0 0 0 0 0
          0 0 0 0 0 0
          0 0 1 1 1 1
          1 1 1 1 1 1
          1 1 1 1 1 1
          1 1 1 1 0 0
          0 0 0 0 0 0
          0 0 0 0 0 0
          0 0 0 0 0 0
          1 1 1 1 1 1
          1 1 1 1 1 1
          1 1 1 1 1 1
          1 1 0 0 0 0
          0 0 0 0 0 0
          0 0 0 0 0 0
          0 0 0 0 1 1
          1 1 1 1 1 1
          1 1 1 1 1 1
          1 1 1 1 1 1
          0 0 0 0 0 0
          0 0 0 0 0 0
          0 0 0 0 0 0
          0 0 1 1 1 1
          1 1 1 1 1 1
          1 1 1 1 1 1
          1 1 1 1 0 0
          0 0 0 0 0 0
          0 0 0 0 0 0
          0 0 0 0 0 0
          1 1 1 1 1 1
          1 1 1 1 1 1
          1 1 1 1 1 1
          1 1 0 0 0 0
          0 10 10 10 10 10
          10 10 10 10 10 10
          10 10 10 10 20 20
          20 20 20 20 20 20
          20 20 20 20 20 20
          20 1 1 1 1 1
          0 0 0 0 0 10
          10 10 10 10 10 10
          10 10 10 10 10 10
          10 10 20 20 20 20
          20 20 20 20 20 20
          20 20 20 20 20 1
          1 1 1 1 0 0
          0 0 0 0 0 0
          0 0 0 0 0 0
          0 0 0 0 0 0
          1 1 1 1 1 1
          1 1 1 1 1 1
          1 1 1 1 1 1
          1 1 0 0 0 0
          0 0 0 0 0 0
          0 0 0 0 0 0
          0 0 0 0 1 1
          1 1 1 1 1 1
          1 1 1 1 1 1
          1 1 1 1 1 1
          0 0 0 0 0 10
          10 10 10 10 10 10
          10 10 10 10 10 10
          10 10 20 20 20 20
          20 20 20 20 20 20
          20 20 20 20 20 1
          1 1 1 1 0 0
          0 0 0 10 10 10
          10 10 10 10 10 10
          10 10 10 10 10 10
          20 20 20 20 20 20
          20 20 20 20 20 20
          20 20 20 1 1 1
          1 1 0 0 0 0
          0 0 0 0 0 0
          0 0 0 0 0 0
          0 0 0 0 1 1
          1 1 1 1 1 1
          1 1 1 1 1 1
          1 1 1 1 1 1
          0 0 0 0 0 0
          0 0 0 0 0 0
          0 0 0 0 0 0
          0 0 1 1 1 1
          1 1 1 1 1 1
          1 1 1 1 1 1
          1 1 1 1 0 0
          0 0 0 0 0 0
          0 0 0 0 0 0
          0 0 0 0 0 0
          1 1 1 1 1 1
          1 1 1 1 1 1
          1 1 1 1 1 1
          1 1 0 0 0 0
          0 0 0 0 0 0
          0 0 0 0 0 0
          0 0 0 0 1 1
          1 1 1 1 1 1
          1 1 1 1 1 1
          1 1 1 1 1 1
          0 0 0 0 0 0
          0 0 0 0 0 0
          0 0 0 0 0 0
          0 0 1 1 1 1
          1 1 1 1 1 1
          1 1 1 1 1 1
          1 1 1 1

        </DataArray>
      </CellData>
      <Points>
        <DataArray type="Float32" Name="Points" NumberOfComponents="3" format="ascii" RangeMin="0" RangeMax="4898.979485566356">
         -0.40000  -0.20000  -0.20000
          -0.30000  -0.20000  -0.20000
          -0.20000  -0.20000  -0.20000
          -0.10000  -0.20000  -0.20000
          0  -0.20000  -0.20000
          0.10000  -0.20000  -0.20000
          0.20000  -0.20000  -0.20000
          0.30000  -0.20000  -0.20000
          0.40000  -0.20000  -0.20000
          -0.40000  -0.10000  -0.20000
          -0.30000  -0.10000  -0.20000
          -0.20000  -0.10000  -0.20000
          -0.10000  -0.10000  -0.20000
          0  -0.10000  -0.20000
          0.10000  -0.10000  -0.20000
          0.20000  -0.10000  -0.20000
          0.30000  -0.10000  -0.20000
          0.40000  -0.10000  -0.20000
          -0.40000          0  -0.20000
          -0.30000          0  -0.20000
          -0.20000          0  -0.20000
          -0.10000          0  -0.20000
          0          0  -0.20000
          0.10000          0  -0.20000
          0.20000          0  -0.20000
          0.30000          0  -0.20000
          0.40000          0  -0.20000
          -0.40000   0.10000  -0.20000
          -0.30000   0.10000  -0.20000
          -0.20000   0.10000  -0.20000
          -0.10000   0.10000  -0.20000
          0   0.10000  -0.20000
          0.10000   0.10000  -0.20000
          0.20000   0.10000  -0.20000
          0.30000   0.10000  -0.20000
          0.40000   0.10000  -0.20000
          -0.40000   0.20000  -0.20000
          -0.30000   0.20000  -0.20000
          -0.20000   0.20000  -0.20000
          -0.10000   0.20000  -0.20000
          0   0.20000  -0.20000
          0.10000   0.20000  -0.20000
          0.20000   0.20000  -0.20000
          0.30000   0.20000  -0.20000
          0.40000   0.20000  -0.20000
          -0.40000  -0.20000  -0.10000
          -0.30000  -0.20000  -0.10000
          -0.20000  -0.20000  -0.10000
          -0.10000  -0.20000  -0.10000
          0  -0.20000  -0.10000
          0.10000  -0.20000  -0.10000
          0.20000  -0.20000  -0.10000
          0.30000  -0.20000  -0.10000
          0.40000  -0.20000  -0.10000
          -0.40000  -0.10000  -0.10000
          -0.30000  -0.10000  -0.10000
          -0.20000  -0.10000  -0.10000
          -0.10000  -0.10000  -0.10000
          0  -0.10000  -0.10000
          0.10000  -0.10000  -0.10000
          0.20000  -0.10000  -0.10000
          0.30000  -0.10000  -0.10000
          0.40000  -0.10000  -0.10000
          -0.40000          0  -0.10000
          -0.30000          0  -0.10000
          -0.20000          0  -0.10000
          -0.10000          0  -0.10000
          0          0  -0.10000
          0.10000          0  -0.10000
          0.20000          0  -0.10000
          0.30000          0  -0.10000
          0.40000          0  -0.10000
          -0.40000   0.10000  -0.10000
          -0.30000   0.10000  -0.10000
          -0.20000   0.10000  -0.10000
          -0.10000   0.10000  -0.10000
          0   0.10000  -0.10000
          0.10000   0.10000  -0.10000
          0.20000   0.10000  -0.10000
          0.30000   0.10000  -0.10000
          0.40000   0.10000  -0.10000
          -0.40000   0.20000  -0.10000
          -0.30000   0.20000  -0.10000
          -0.20000   0.20000  -0.10000
          -0.10000   0.20000  -0.10000
          0   0.20000  -0.10000
          0.10000   0.20000  -0.10000
          0.20000   0.20000  -0.10000
          0.30000   0.20000  -0.10000
          0.40000   0.20000  -0.10000
          -0.40000  -0.20000          0
          -0.30000  -0.20000          0
          -0.20000  -0.20000          0
          -0.10000  -0.20000          0
          0  -0.20000          0
          0.10000  -0.20000          0
          0.20000  -0.20000          0
          0.30000  -0.20000          0
          0.40000  -0.20000          0
          -0.40000  -0.10000          0
          -0.30000  -0.10000          0
          -0.20000  -0.10000          0
          -0.10000  -0.10000          0
          0  -0.10000          0
          0.10000  -0.10000          0
          0.20000  -0.10000          0
          0.30000  -0.10000          0
          0.40000  -0.10000          0
          -0.40000          0          0
          -0.30000          0          0
          -0.20000          0          0
          -0.10000          0          0
          0          0          0
          0.10000          0          0
          0.20000          0          0
          0.30000          0          0
          0.40000          0          0
          -0.40000   0.10000          0
          -0.30000   0.10000          0
          -0.20000   0.10000          0
          -0.10000   0.10000          0
          0   0.10000          0
          0.10000   0.10000          0
          0.20000   0.10000          0
          0.30000   0.10000          0
          0.40000   0.10000          0
          -0.40000   0.20000          0
          -0.30000   0.20000          0
          -0.20000   0.20000          0
          -0.10000   0.20000          0
          0   0.20000          0
          0.10000   0.20000          0
          0.20000   0.20000          0
          0.30000   0.20000          0
          0.40000   0.20000          0
          -0.40000  -0.20000   0.10000
          -0.30000  -0.20000   0.10000
          -0.20000  -0.20000   0.10000
          -0.10000  -0.20000   0.10000
          0  -0.20000   0.10000
          0.10000  -0.20000   0.10000
          0.20000  -0.20000   0.10000
          0.30000  -0.20000   0.10000
          0.40000  -0.20000   0.10000
          -0.40000  -0.10000   0.10000
          -0.30000  -0.10000   0.10000
          -0.20000  -0.10000   0.10000
          -0.10000  -0.10000   0.10000
          0  -0.10000   0.10000
          0.10000  -0.10000   0.10000
          0.20000  -0.10000   0.10000
          0.30000  -0.10000   0.10000
          0.40000  -0.10000   0.10000
          -0.40000          0   0.10000
          -0.30000          0   0.10000
          -0.20000          0   0.10000
          -0.10000          0   0.10000
          0          0   0.10000
          0.10000          0   0.10000
          0.20000          0   0.10000
          0.30000          0   0.10000
          0.40000          0   0.10000
          -0.40000   0.10000   0.10000
          -0.30000   0.10000   0.10000
          -0.20000   0.10000   0.10000
          -0.10000   0.10000   0.10000
          0   0.10000   0.10000
          0.10000   0.10000   0.10000
          0.20000   0.10000   0.10000
          0.30000   0.10000   0.10000
          0.40000   0.10000   0.10000
          -0.40000   0.20000   0.10000
          -0.30000   0.20000   0.10000
          -0.20000   0.20000   0.10000
          -0.10000   0.20000   0.10000
          0   0.20000   0.10000
          0.10000   0.20000   0.10000
          0.20000   0.20000   0.10000
          0.30000   0.20000   0.10000
          0.40000   0.20000   0.10000
          -0.40000  -0.20000   0.20000
          -0.30000  -0.20000   0.20000
          -0.20000  -0.20000   0.20000
          -0.10000  -0.20000   0.20000
          0  -0.20000   0.20000
          0.10000  -0.20000   0.20000
          0.20000  -0.20000   0.20000
          0.30000  -0.20000   0.20000
          0.40000  -0.20000   0.20000
          -0.40000  -0.10000   0.20000
          -0.30000  -0.10000   0.20000
          -0.20000  -0.10000   0.20000
          -0.10000  -0.10000   0.20000
          0  -0.10000   0.20000
          0.10000  -0.10000   0.20000
          0.20000  -0.10000   0.20000
          0.30000  -0.10000   0.20000
          0.40000  -0.10000   0.20000
          -0.40000          0   0.20000
          -0.30000          0   0.20000
          -0.20000          0   0.20000
          -0.10000          0   0.20000
          0          0   0.20000
          0.10000          0   0.20000
          0.20000          0   0.20000
          0.30000          0   0.20000
          0.40000          0   0.20000
          -0.40000   0.10000   0.20000
          -0.30000   0.10000   0.20000
          -0.20000   0.10000   0.20000
          -0.10000   0.10000   0.20000
          0   0.10000   0.20000
          0.10000   0.10000   0.20000
          0.20000   0.10000   0.20000
          0.30000   0.10000   0.20000
          0.40000   0.10000   0.20000
          -0.40000   0.20000   0.20000
          -0.30000   0.20000   0.20000
          -0.20000   0.20000   0.20000
          -0.10000   0.20000   0.20000
          0   0.20000   0.20000
          0.10000   0.20000   0.20000
          0.20000   0.20000   0.20000
          0.30000   0.20000   0.20000
          0.40000   0.20000   0.20000
          <InformationKey name="L2_NORM_FINITE_RANGE" location="vtkDataArray" length="2">
            <Value index="0">
              0
            </Value>
            <Value index="1">
              4898.9794856
            </Value>
          </InformationKey>
          <InformationKey name="L2_NORM_RANGE" location="vtkDataArray" length="2">
            <Value index="0">
              0
            </Value>
            <Value index="1">
              4898.9794856
            </Value>
          </InformationKey>
        </DataArray>
      </Points>
      <Cells>
        <DataArray type="Int64" Name="connectivity" format="ascii" RangeMin="0" RangeMax="224">
          0 1 9 45 9 1
          10 55 1 45 46 55
          1 9 45 55 45 9
          54 55 1 2 11 47
          10 1 11 55 11 1
          47 55 1 46 47 55
          47 11 55 56 2 3
          11 47 11 3 12 57
          3 47 48 57 3 11
          47 57 47 11 56 57
          3 4 13 49 12 3
          13 57 13 3 49 57
          3 48 49 57 49 13
          57 58 4 5 13 49
          13 5 14 59 5 49
          50 59 5 13 49 59
          49 13 58 59 5 6
          15 51 14 5 15 59
          15 5 51 59 5 50
          51 59 51 15 59 60
          6 7 15 51 15 7
          16 61 7 51 52 61
          7 15 51 61 51 15
          60 61 7 8 17 53
          16 7 17 61 17 7
          53 61 7 52 53 61
          53 17 61 62 9 10
          19 55 18 9 19 63
          19 9 55 63 9 54
          55 63 55 19 63 64
          10 11 19 55 19 11
          20 65 11 55 56 65
          11 19 55 65 55 19
          64 65 11 12 21 57
          20 11 21 65 21 11
          57 65 11 56 57 65
          57 21 65 66 12 13
          21 57 21 13 22 67
          13 57 58 67 13 21
          57 67 57 21 66 67
          13 14 23 59 22 13
          23 67 23 13 59 67
          13 58 59 67 59 23
          67 68 14 15 23 59
          23 15 24 69 15 59
          60 69 15 23 59 69
          59 23 68 69 15 16
          25 61 24 15 25 69
          25 15 61 69 15 60
          61 69 61 25 69 70
          16 17 25 61 25 17
          26 71 17 61 62 71
          17 25 61 71 61 25
          70 71 18 19 27 63
          27 19 28 73 19 63
          64 73 19 27 63 73
          63 27 72 73 19 20
          29 65 28 19 29 73
          29 19 65 73 19 64
          65 73 65 29 73 74
          20 21 29 65 29 21
          30 75 21 65 66 75
          21 29 65 75 65 29
          74 75 21 22 31 67
          30 21 31 75 31 21
          67 75 21 66 67 75
          67 31 75 76 22 23
          31 67 31 23 32 77
          23 67 68 77 23 31
          67 77 67 31 76 77
          23 24 33 69 32 23
          33 77 33 23 69 77
          23 68 69 77 69 33
          77 78 24 25 33 69
          33 25 34 79 25 69
          70 79 25 33 69 79
          69 33 78 79 25 26
          35 71 34 25 35 79
          35 25 71 79 25 70
          71 79 71 35 79 80
          27 28 37 73 36 27
          37 81 37 27 73 81
          27 72 73 81 73 37
          81 82 28 29 37 73
          37 29 38 83 29 73
          74 83 29 37 73 83
          73 37 82 83 29 30
          39 75 38 29 39 83
          39 29 75 83 29 74
          75 83 75 39 83 84
          30 31 39 75 39 31
          40 85 31 75 76 85
          31 39 75 85 75 39
          84 85 31 32 41 77
          40 31 41 85 41 31
          77 85 31 76 77 85
          77 41 85 86 32 33
          41 77 41 33 42 87
          33 77 78 87 33 41
          77 87 77 41 86 87
          33 34 43 79 42 33
          43 87 43 33 79 87
          33 78 79 87 79 43
          87 88 34 35 43 79
          43 35 44 89 35 79
          80 89 35 43 79 89
          79 43 88 89 45 46
          55 91 54 45 55 99
          55 45 91 99 45 90
          91 99 91 55 99 100
          46 47 55 91 55 47
          56 101 47 91 92 101
          47 55 91 101 91 55
          100 101 47 48 57 93
          56 47 57 101 57 47
          93 101 47 92 93 101
          93 57 101 102 48 49
          57 93 57 49 58 103
          49 93 94 103 49 57
          93 103 93 57 102 103
          49 50 59 95 58 49
          59 103 59 49 95 103
          49 94 95 103 95 59
          103 104 50 51 59 95
          59 51 60 105 51 95
          96 105 51 59 95 105
          95 59 104 105 51 52
          61 97 60 51 61 105
          61 51 97 105 51 96
          97 105 97 61 105 106
          52 53 61 97 61 53
          62 107 53 97 98 107
          53 61 97 107 97 61
          106 107 54 55 63 99
          63 55 64 109 55 99
          100 109 55 63 99 109
          99 63 108 109 55 56
          65 101 64 55 65 109
          65 55 101 109 55 100
          101 109 101 65 109 110
          56 57 65 101 65 57
          66 111 57 101 102 111
          57 65 101 111 101 65
          110 111 57 58 67 103
          66 57 67 111 67 57
          103 111 57 102 103 111
          103 67 111 112 58 59
          67 103 67 59 68 113
          59 103 104 113 59 67
          103 113 103 67 112 113
          59 60 69 105 68 59
          69 113 69 59 105 113
          59 104 105 113 105 69
          113 114 60 61 69 105
          69 61 70 115 61 105
          106 115 61 69 105 115
          105 69 114 115 61 62
          71 107 70 61 71 115
          71 61 107 115 61 106
          107 115 107 71 115 116
          63 64 73 109 72 63
          73 117 73 63 109 117
          63 108 109 117 109 73
          117 118 64 65 73 109
          73 65 74 119 65 109
          110 119 65 73 109 119
          109 73 118 119 65 66
          75 111 74 65 75 119
          75 65 111 119 65 110
          111 119 111 75 119 120
          66 67 75 111 75 67
          76 121 67 111 112 121
          67 75 111 121 111 75
          120 121 67 68 77 113
          76 67 77 121 77 67
          113 121 67 112 113 121
          113 77 121 122 68 69
          77 113 77 69 78 123
          69 113 114 123 69 77
          113 123 113 77 122 123
          69 70 79 115 78 69
          79 123 79 69 115 123
          69 114 115 123 115 79
          123 124 70 71 79 115
          79 71 80 125 71 115
          116 125 71 79 115 125
          115 79 124 125 72 73
          81 117 81 73 82 127
          73 117 118 127 73 81
          117 127 117 81 126 127
          73 74 83 119 82 73
          83 127 83 73 119 127
          73 118 119 127 119 83
          127 128 74 75 83 119
          83 75 84 129 75 119
          120 129 75 83 119 129
          119 83 128 129 75 76
          85 121 84 75 85 129
          85 75 121 129 75 120
          121 129 121 85 129 130
          76 77 85 121 85 77
          86 131 77 121 122 131
          77 85 121 131 121 85
          130 131 77 78 87 123
          86 77 87 131 87 77
          123 131 77 122 123 131
          123 87 131 132 78 79
          87 123 87 79 88 133
          79 123 124 133 79 87
          123 133 123 87 132 133
          79 80 89 125 88 79
          89 133 89 79 125 133
          79 124 125 133 125 89
          133 134 90 91 99 135
          99 91 100 145 91 135
          136 145 91 99 135 145
          135 99 144 145 91 92
          101 137 100 91 101 145
          101 91 137 145 91 136
          137 145 137 101 145 146
          92 93 101 137 101 93
          102 147 93 137 138 147
          93 101 137 147 137 101
          146 147 93 94 103 139
          102 93 103 147 103 93
          139 147 93 138 139 147
          139 103 147 148 94 95
          103 139 103 95 104 149
          95 139 140 149 95 103
          139 149 139 103 148 149
          95 96 105 141 104 95
          105 149 105 95 141 149
          95 140 141 149 141 105
          149 150 96 97 105 141
          105 97 106 151 97 141
          142 151 97 105 141 151
          141 105 150 151 97 98
          107 143 106 97 107 151
          107 97 143 151 97 142
          143 151 143 107 151 152
          99 100 109 145 108 99
          109 153 109 99 145 153
          99 144 145 153 145 109
          153 154 100 101 109 145
          109 101 110 155 101 145
          146 155 101 109 145 155
          145 109 154 155 101 102
          111 147 110 101 111 155
          111 101 147 155 101 146
          147 155 147 111 155 156
          102 103 111 147 111 103
          112 157 103 147 148 157
          103 111 147 157 147 111
          156 157 103 104 113 149
          112 103 113 157 113 103
          149 157 103 148 149 157
          149 113 157 158 104 105
          113 149 113 105 114 159
          105 149 150 159 105 113
          149 159 149 113 158 159
          105 106 115 151 114 105
          115 159 115 105 151 159
          105 150 151 159 151 115
          159 160 106 107 115 151
          115 107 116 161 107 151
          152 161 107 115 151 161
          151 115 160 161 108 109
          117 153 117 109 118 163
          109 153 154 163 109 117
          153 163 153 117 162 163
          109 110 119 155 118 109
          119 163 119 109 155 163
          109 154 155 163 155 119
          163 164 110 111 119 155
          119 111 120 165 111 155
          156 165 111 119 155 165
          155 119 164 165 111 112
          121 157 120 111 121 165
          121 111 157 165 111 156
          157 165 157 121 165 166
          112 113 121 157 121 113
          122 167 113 157 158 167
          113 121 157 167 157 121
          166 167 113 114 123 159
          122 113 123 167 123 113
          159 167 113 158 159 167
          159 123 167 168 114 115
          123 159 123 115 124 169
          115 159 160 169 115 123
          159 169 159 123 168 169
          115 116 125 161 124 115
          125 169 125 115 161 169
          115 160 161 169 161 125
          169 170 117 118 127 163
          126 117 127 171 127 117
          163 171 117 162 163 171
          163 127 171 172 118 119
          127 163 127 119 128 173
          119 163 164 173 119 127
          163 173 163 127 172 173
          119 120 129 165 128 119
          129 173 129 119 165 173
          119 164 165 173 165 129
          173 174 120 121 129 165
          129 121 130 175 121 165
          166 175 121 129 165 175
          165 129 174 175 121 122
          131 167 130 121 131 175
          131 121 167 175 121 166
          167 175 167 131 175 176
          122 123 131 167 131 123
          132 177 123 167 168 177
          123 131 167 177 167 131
          176 177 123 124 133 169
          132 123 133 177 133 123
          169 177 123 168 169 177
          169 133 177 178 124 125
          133 169 133 125 134 179
          125 169 170 179 125 133
          169 179 169 133 178 179
          135 136 145 181 144 135
          145 189 145 135 181 189
          135 180 181 189 181 145
          189 190 136 137 145 181
          145 137 146 191 137 181
          182 191 137 145 181 191
          181 145 190 191 137 138
          147 183 146 137 147 191
          147 137 183 191 137 182
          183 191 183 147 191 192
          138 139 147 183 147 139
          148 193 139 183 184 193
          139 147 183 193 183 147
          192 193 139 140 149 185
          148 139 149 193 149 139
          185 193 139 184 185 193
          185 149 193 194 140 141
          149 185 149 141 150 195
          141 185 186 195 141 149
          185 195 185 149 194 195
          141 142 151 187 150 141
          151 195 151 141 187 195
          141 186 187 195 187 151
          195 196 142 143 151 187
          151 143 152 197 143 187
          188 197 143 151 187 197
          187 151 196 197 144 145
          153 189 153 145 154 199
          145 189 190 199 145 153
          189 199 189 153 198 199
          145 146 155 191 154 145
          155 199 155 145 191 199
          145 190 191 199 191 155
          199 200 146 147 155 191
          155 147 156 201 147 191
          192 201 147 155 191 201
          191 155 200 201 147 148
          157 193 156 147 157 201
          157 147 193 201 147 192
          193 201 193 157 201 202
          148 149 157 193 157 149
          158 203 149 193 194 203
          149 157 193 203 193 157
          202 203 149 150 159 195
          158 149 159 203 159 149
          195 203 149 194 195 203
          195 159 203 204 150 151
          159 195 159 151 160 205
          151 195 196 205 151 159
          195 205 195 159 204 205
          151 152 161 197 160 151
          161 205 161 151 197 205
          151 196 197 205 197 161
          205 206 153 154 163 199
          162 153 163 207 163 153
          199 207 153 198 199 207
          199 163 207 208 154 155
          163 199 163 155 164 209
          155 199 200 209 155 163
          199 209 199 163 208 209
          155 156 165 201 164 155
          165 209 165 155 201 209
          155 200 201 209 201 165
          209 210 156 157 165 201
          165 157 166 211 157 201
          202 211 157 165 201 211
          201 165 210 211 157 158
          167 203 166 157 167 211
          167 157 203 211 157 202
          203 211 203 167 211 212
          158 159 167 203 167 159
          168 213 159 203 204 213
          159 167 203 213 203 167
          212 213 159 160 169 205
          168 159 169 213 169 159
          205 213 159 204 205 213
          205 169 213 214 160 161
          169 205 169 161 170 215
          161 205 206 215 161 169
          205 215 205 169 214 215
          162 163 171 207 171 163
          172 217 163 207 208 217
          163 171 207 217 207 171
          216 217 163 164 173 209
          172 163 173 217 173 163
          209 217 163 208 209 217
          209 173 217 218 164 165
          173 209 173 165 174 219
          165 209 210 219 165 173
          209 219 209 173 218 219
          165 166 175 211 174 165
          175 219 175 165 211 219
          165 210 211 219 211 175
          219 220 166 167 175 211
          175 167 176 221 167 211
          212 221 167 175 211 221
          211 175 220 221 167 168
          177 213 176 167 177 221
          177 167 213 221 167 212
          213 221 213 177 221 222
          168 169 177 213 177 169
          178 223 169 213 214 223
          169 177 213 223 213 177
          222 223 169 170 179 215
          178 169 179 223 179 169
          215 223 169 214 215 223
          215 179 223 224
        </DataArray>
        <DataArray type="Int64" Name="offsets" format="ascii" RangeMin="4" RangeMax="2560">
          4 8 12 16 20 24
          28 32 36 40 44 48
          52 56 60 64 68 72
          76 80 84 88 92 96
          100 104 108 112 116 120
          124 128 132 136 140 144
          148 152 156 160 164 168
          172 176 180 184 188 192
          196 200 204 208 212 216
          220 224 228 232 236 240
          244 248 252 256 260 264
          268 272 276 280 284 288
          292 296 300 304 308 312
          316 320 324 328 332 336
          340 344 348 352 356 360
          364 368 372 376 380 384
          388 392 396 400 404 408
          412 416 420 424 428 432
          436 440 444 448 452 456
          460 464 468 472 476 480
          484 488 492 496 500 504
          508 512 516 520 524 528
          532 536 540 544 548 552
          556 560 564 568 572 576
          580 584 588 592 596 600
          604 608 612 616 620 624
          628 632 636 640 644 648
          652 656 660 664 668 672
          676 680 684 688 692 696
          700 704 708 712 716 720
          724 728 732 736 740 744
          748 752 756 760 764 768
          772 776 780 784 788 792
          796 800 804 808 812 816
          820 824 828 832 836 840
          844 848 852 856 860 864
          868 872 876 880 884 888
          892 896 900 904 908 912
          916 920 924 928 932 936
          940 944 948 952 956 960
          964 968 972 976 980 984
          988 992 996 1000 1004 1008
          1012 1016 1020 1024 1028 1032
          1036 1040 1044 1048 1052 1056
          1060 1064 1068 1072 1076 1080
          1084 1088 1092 1096 1100 1104
          1108 1112 1116 1120 1124 1128
          1132 1136 1140 1144 1148 1152
          1156 1160 1164 1168 1172 1176
          1180 1184 1188 1192 1196 1200
          1204 1208 1212 1216 1220 1224
          1228 1232 1236 1240 1244 1248
          1252 1256 1260 1264 1268 1272
          1276 1280 1284 1288 1292 1296
          1300 1304 1308 1312 1316 1320
          1324 1328 1332 1336 1340 1344
          1348 1352 1356 1360 1364 1368
          1372 1376 1380 1384 1388 1392
          1396 1400 1404 1408 1412 1416
          1420 1424 1428 1432 1436 1440
          1444 1448 1452 1456 1460 1464
          1468 1472 1476 1480 1484 1488
          1492 1496 1500 1504 1508 1512
          1516 1520 1524 1528 1532 1536
          1540 1544 1548 1552 1556 1560
          1564 1568 1572 1576 1580 1584
          1588 1592 1596 1600 1604 1608
          1612 1616 1620 1624 1628 1632
          1636 1640 1644 1648 1652 1656
          1660 1664 1668 1672 1676 1680
          1684 1688 1692 1696 1700 1704
          1708 1712 1716 1720 1724 1728
          1732 1736 1740 1744 1748 1752
          1756 1760 1764 1768 1772 1776
          1780 1784 1788 1792 1796 1800
          1804 1808 1812 1816 1820 1824
          1828 1832 1836 1840 1844 1848
          1852 1856 1860 1864 1868 1872
          1876 1880 1884 1888 1892 1896
          1900 1904 1908 1912 1916 1920
          1924 1928 1932 1936 1940 1944
          1948 1952 1956 1960 1964 1968
          1972 1976 1980 1984 1988 1992
          1996 2000 2004 2008 2012 2016
          2020 2024 2028 2032 2036 2040
          2044 2048 2052 2056 2060 2064
          2068 2072 2076 2080 2084 2088
          2092 2096 2100 2104 2108 2112
          2116 2120 2124 2128 2132 2136
          2140 2144 2148 2152 2156 2160
          2164 2168 2172 2176 2180 2184
          2188 2192 2196 2200 2204 2208
          2212 2216 2220 2224 2228 2232
          2236 2240 2244 2248 2252 2256
          2260 2264 2268 2272 2276 2280
          2284 2288 2292 2296 2300 2304
          2308 2312 2316 2320 2324 2328
          2332 2336 2340 2344 2348 2352
          2356 2360 2364 2368 2372 2376
          2380 2384 2388 2392 2396 2400
          2404 2408 2412 2416 2420 2424
          2428 2432 2436 2440 2444 2448
          2452 2456 2460 2464 2468 2472
          2476 2480 2484 2488 2492 2496
          2500 2504 2508 2512 2516 2520
          2524 2528 2532 2536 2540 2544
          2548 2552 2556 2560
        </DataArray>
        <DataArray type="UInt8" Name="types" format="ascii" RangeMin="10" RangeMax="10">
          10 10 10 10 10 10
          10 10 10 10 10 10
          10 10 10 10 10 10
          10 10 10 10 10 10
          10 10 10 10 10 10
          10 10 10 10 10 10
          10 10 10 10 10 10
          10 10 10 10 10 10
          10 10 10 10 10 10
          10 10 10 10 10 10
          10 10 10 10 10 10
          10 10 10 10 10 10
          10 10 10 10 10 10
          10 10 10 10 10 10
          10 10 10 10 10 10
          10 10 10 10 10 10
          10 10 10 10 10 10
          10 10 10 10 10 10
          10 10 10 10 10 10
          10 10 10 10 10 10
          10 10 10 10 10 10
          10 10 10 10 10 10
          10 10 10 10 10 10
          10 10 10 10 10 10
          10 10 10 10 10 10
          10 10 10 10 10 10
          10 10 10 10 10 10
          10 10 10 10 10 10
          10 10 10 10 10 10
          10 10 10 10 10 10
          10 10 10 10 10 10
          10 10 10 10 10 10
          10 10 10 10 10 10
          10 10 10 10 10 10
          10 10 10 10 10 10
          10 10 10 10 10 10
          10 10 10 10 10 10
          10 10 10 10 10 10
          10 10 10 10 10 10
          10 10 10 10 10 10
          10 10 10 10 10 10
          10 10 10 10 10 10
          10 10 10 10 10 10
          10 10 10 10 10 10
          10 10 10 10 10 10
          10 10 10 10 10 10
          10 10 10 10 10 10
          10 10 10 10 10 10
          10 10 10 10 10 10
          10 10 10 10 10 10
          10 10 10 10 10 10
          10 10 10 10 10 10
          10 10 10 10 10 10
          10 10 10 10 10 10
          10 10 10 10 10 10
          10 10 10 10 10 10
          10 10 10 10 10 10
          10 10 10 10 10 10
          10 10 10 10 10 10
          10 10 10 10 10 10
          10 10 10 10 10 10
          10 10 10 10 10 10
          10 10 10 10 10 10
          10 10 10 10 10 10
          10 10 10 10 10 10
          10 10 10 10 10 10
          10 10 10 10 10 10
          10 10 10 10 10 10
          10 10 10 10 10 10
          10 10 10 10 10 10
          10 10 10 10 10 10
          10 10 10 10 10 10
          10 10 10 10 10 10
          10 10 10 10 10 10
          10 10 10 10 10 10
          10 10 10 10 10 10
          10 10 10 10 10 10
          10 10 10 10 10 10
          10 10 10 10 10 10
          10 10 10 10 10 10
          10 10 10 10 10 10
          10 10 10 10 10 10
          10 10 10 10 10 10
          10 10 10 10 10 10
          10 10 10 10 10 10
          10 10 10 10 10 10
          10 10 10 10 10 10
          10 10 10 10 10 10
          10 10 10 10 10 10
          10 10 10 10 10 10
          10 10 10 10 10 10
          10 10 10 10 10 10
          10 10 10 10 10 10
          10 10 10 10 10 10
          10 10 10 10 10 10
          10 10 10 10 10 10
          10 10 10 10 10 10
          10 10 10 10 10 10
          10 10 10 10 10 10
          10 10 10 10 10 10
          10 10 10 10 10 10
          10 10 10 10 10 10
          10 10 10 10 10 10
          10 10 10 10 10 10
          10 10 10 10 10 10
          10 10 10 10 10 10
          10 10 10 10
        </DataArray>
      </Cells>
    </Piece>
  </UnstructuredGrid>
</VTKFile>
